# xmcd
#
# Track frame offsets:
#  150
#  10477
#  49797
#  61352
#  73597
#  82745
#  95632
#  107972
#  120627
#  130592
#  141915
#  152097
#  162952
#  174257
#  187250
#  197710
#  209175
#  220042
#  229465
#  248472
#  260130
#  273900
#
# Disc length: 3823 seconds
#
# Revision: 0
# Processed by: cddbd v1.5.1PL2 Copyright (c) Steve Scherf et al.
# Submitted via: Collectorz.com_Music_Collector 6.9
#
DISCID=480eed16
DTITLE=Ike Turner and His Kings Of Rhythm - Rocks The Blues - Disc 2
DYEAR=1993
DGENRE=Blues - R&B
TTITLE0=Ike Turner - Cubano Jump ( Hey Miss Tina )
TTITLE1=Ike Turner - All The Blues All The Time
TTITLE2=J.W. Walker - J.W.'s Blues
TTITLE3=J.W. Walker - Sitting Here Wondering
TTITLE4=J.W. Walker - Can't You See My Baby
TTITLE5=Johnny Wright - The World Is Yours
TTITLE6=Johnny Wright - Suffocate
TTITLE7=Billy Gayles - I Miss You So
TTITLE8=Billy Gayles - Night Howler
TTITLE9=Billy Gayles - My Heart In Your Hands
TTITLE10=Billy Gayles - A Woman Just Won't Do
TTITLE11=Billy Gayles - I'm Tired Of Being Dogged Around
TTITLE12=Ike and Bonnie - Lookin' For My Baby
TTITLE13=Ike and Bonnie - My Heart Belongs To You
TTITLE14=Lover Boy - Love Is Scarce
TTITLE15=Lover Boy - Nobody Seems To Want Me
TTITLE16=Lonnie "The Cat" - I Ain't Drunk
TTITLE17=Lonnie "The Cat" - The Road I Have To Travel
TTITLE18=Eugene Fox - Fox's Dream
TTITLE19=Brother Bell - Whole Heap Of Mama
TTITLE20=Brother Bell - If You nFeel Froggish
TTITLE21=Johnny Wright - The World Is Yours ( Tk. % )
EXTD=
EXTT0=
EXTT1=
EXTT2=
EXTT3=
EXTT4=
EXTT5=
EXTT6=
EXTT7=
EXTT8=
EXTT9=
EXTT10=
EXTT11=
EXTT12=
EXTT13=
EXTT14=
EXTT15=
EXTT16=
EXTT17=
EXTT18=
EXTT19=
EXTT20=
EXTT21=
PLAYORDER=
